# xmcd
# 
# Track frame offsets:
#     150
#     7067
#     26742
#     45975
#     67392
#     90657
#     110950
#     130797
#     142820
#     165537
#     181195
#     206412
# 
# Disc length: 3099
# 
# Revision: 11
# Processed by: cddbd v1.5.2PL0 Copyright (c) Steve Scherf et al.
# Submitted via: fre:ac v1.0.31
# 
DISCID=a40c190c
DTITLE=Matsu Takako - Itsuka sakura no ame ni
DYEAR=2000
DGENRE=JPop
TTITLE0=いつか、桜の雨に・・・
TTITLE1=The Shooting Star
TTITLE2=エール
TTITLE3=夏の記憶
TTITLE4=月のダンス
TTITLE5=days
TTITLE6=your birthday 〜 kame kame everybody
TTITLE7=真夜中のギター
TTITLE8=end roll
TTITLE9=夕焼けのワルツ
TTITLE10=夢のしずく
TTITLE11=桜の雨、いつか
EXTD=
EXTT0=
EXTT1=
EXTT2=
EXTT3=
EXTT4=
EXTT5=
EXTT6=
EXTT7=
EXTT8=
EXTT9=
EXTT10=
EXTT11=
PLAYORDER=
